<?xml version="1.0" encoding="UTF-8"?>
<svg id="Layer_1" xmlns="http://www.w3.org/2000/svg" xmlns:xlink="http://www.w3.org/1999/xlink" version="1.1" viewBox="160 470 1680 1060">
  <!-- Generator: Adobe Illustrator 30.7.0, SVG Export Plug-In . SVG Version: 2.1.4 Build 114)  -->
  <defs>
    <style>
      .st0 {
        fill: url(#radial-gradient);
      }

      .st1 {
        fill: url(#linear-gradient);
      }

      .st2 {
        fill: #be1e2d;
      }

      .st3 {
        fill: #fff;
      }

      .st4 {
        fill: url(#Earthtone_1_Radial4);
      }

      .st5 {
        fill: url(#Earthtone_1_Radial1);
      }

      .st6 {
        fill: url(#Earthtone_1_Radial2);
      }

      .st7 {
        fill: url(#Earthtone_1_Radial5);
      }

      .st8 {
        fill: url(#Earthtone_1_Radial3);
      }

      .st9 {
        fill: url(#Earthtone_1_Radial);
      }
    </style>
    <linearGradient id="linear-gradient" x1="194.14" y1="1079.3" x2="1294.13" y2="1079.3" gradientUnits="userSpaceOnUse">
      <stop offset="0" stop-color="#eed387"/>
      <stop offset=".5" stop-color="#e6c14c"/>
      <stop offset="1" stop-color="#e1b724"/>
    </linearGradient>
    <radialGradient id="Earthtone_1_Radial" data-name="Earthtone 1 Radial" cx="1405.92" cy="861.42" fx="1405.92" fy="861.42" r="49.03" gradientUnits="userSpaceOnUse">
      <stop offset="0" stop-color="#f7eac7"/>
      <stop offset=".5" stop-color="#f2db9c"/>
      <stop offset="1" stop-color="#eac54d"/>
    </radialGradient>
    <radialGradient id="Earthtone_1_Radial1" data-name="Earthtone 1 Radial" cx="1547.91" cy="928.7" fx="1547.91" fy="928.7" r="92.24" xlink:href="#Earthtone_1_Radial"/>
    <radialGradient id="Earthtone_1_Radial2" data-name="Earthtone 1 Radial" cx="1651.15" cy="982.43" fx="1651.15" fy="982.43" r="52.34" xlink:href="#Earthtone_1_Radial"/>
    <radialGradient id="Earthtone_1_Radial3" data-name="Earthtone 1 Radial" cx="1674.43" cy="1043.61" fx="1674.43" fy="1043.61" r="62.64" xlink:href="#Earthtone_1_Radial"/>
    <radialGradient id="radial-gradient" cx="1701.58" cy="1223.33" fx="1701.58" fy="1223.33" r="26.76" gradientUnits="userSpaceOnUse">
      <stop offset="0" stop-color="#f7eac7"/>
      <stop offset=".5" stop-color="#f2db9c"/>
      <stop offset="1" stop-color="#eac54d"/>
    </radialGradient>
    <radialGradient id="Earthtone_1_Radial4" data-name="Earthtone 1 Radial" cx="1698.39" cy="1172.18" fx="1698.39" fy="1172.18" r="41" xlink:href="#Earthtone_1_Radial"/>
    <radialGradient id="Earthtone_1_Radial5" data-name="Earthtone 1 Radial" cx="1689.17" cy="1111.6" fx="1689.17" fy="1111.6" r="60.01" xlink:href="#Earthtone_1_Radial"/>
  </defs>
  <g>
    <path class="st1" d="M377.83,830.55h148.2l184.39,497.51h-154.47l-24.36-73.06h-168.38l-24.36,73.06h-144.73l183.7-497.51ZM395.92,1154.8h102.98l-31.31-97.41c-7.65-24.36-18.79-64.01-18.79-64.01h-1.4s-10.44,39.66-18.78,64.01l-32.71,97.41ZM702.74,830.55h247.01c101.6,0,187.88,46.62,187.88,148.21,0,57.05-29.23,97.41-81.41,121.07v2.09c40.35,15.31,61.23,43.14,69.58,82.1,13.22,59.84,2.09,131.51,20.18,136.38v7.65h-143.33c-13.92-9.74-8.35-70.97-18.79-115.51-9.04-38.27-25.74-57.75-68.19-57.75h-67.49v173.26h-145.42v-497.51ZM848.16,1051.12h77.93c41.75,0,64.72-18.09,64.72-52.88,0-32.7-20.87-53.58-62.62-53.58h-80.02v106.46ZM1148.71,902.49h145.42v425.56h-145.42v-425.56Z"/>
    <g>
      <path d="M1760.49,1054.49c15.85-17.43,16.21-40.68,3.02-58.36-8.42-11.29-20.44-17.82-34.85-21.49,7.26-18.89,1.87-37.25-12.77-49.33-11.78-9.72-25.85-14.22-41.99-15.44-3.01-.38-4.18-1.91.18-2.59,38.48-22.31,74.67-49.32,97.28-88,27-46.21,35.73-99.23,34.37-152.25-.98-38.41-8.61-96.21-38.26-116.55-9.25-6.35-18.15-4.19-26.27,1.48l-51.53,36.02-18.52-74.81c-.89-3.59-6.27-8.16-9.37-8.89-3.15-.74-9.74,1.35-12.46,3.79l-40.23,36.09c-84.35,82.31-136.35,189.86-132.49,309.16l-9.13,3c1.83-31.77-13.78-56.32-43.99-56.93-12.82-.26-24.54,3.87-37.84,7.57-7.88-9.26-.89-22.17-6.86-26.86-1.51-1.18-7.57-.66-9.12.77l-16.06,14.81c-1.65,1.52-7.13,3.75-9.03,2.66-1.9-1.09-3.9-4.92-5.45-7.51-1.32-2.2-7.69-.71-9.69.82l-43.08,35.9,2.18,7.24,39.82-27.6c1.66-1.15,6.83,4.04,6.65,5.74l-24.64,19.6,4.09,5.93,29.09-16.85c3.35,3.19,7.71,8.11,9.54,11.29l-9.57,26.68c-11.88,33.13-2.17,68.53,29.69,74.89,16.54,3.3,31.07-.69,46.23-8.58l-1.48,11.64-41.02,27.72c-5.7,3.85-7.89,11.77-9.01,18.47-4.42,26.35-10.33,50.77-18.27,76.1-1.85,5.88-.88,12.39,3.62,15.92,3.27,2.56,9.6,4.15,14.12,2.07l1.61-12.99,18.47-76.45c2.78-11.52,33.64-35.16,38.1-35.91,1.21-.2,2.77,1.9,5.29,4.55l-22.24,17.81c-5.14,4.11-9.16,10.27-10.38,16.91l-10.38,56.43-9.59,38.96c-.37,8.49,11.17,14.95,17.13,16.14l8.42-29.67,19.21-80.72c7.34-10.91,19.75-19.66,30.23-25.93l13.26,4.07c1.3.4,3.52,4.46,2.71,5.62-.81,1.17-2.72,3.21-4.15,4.3l-15.91,12.21,5.74,21.15,8.02,83.02c.42,4.32,2.76,10.32,5.71,11.99,3.06,1.73,9.49,2.07,13.55,1.66l-8.63-105.55c-.3-3.66,2.25-10.56,4.91-12.54l19.05-14.19c1.37-1.02,5.78-1.08,6.45.14l2.32,4.21-18.08,15.81c-4.89,4.28-2.32,11.7-2,17.74l5.09,94.62c.39,7.31,12.08,9.9,17.92,8.38l1.41-15.57-5.52-87.76c12.78-22.11,36.32-51.06,44.38-29.37l-21.77,44.05c-1.92,4.52-2.07,10.2-1.01,15.15l12.79,59.49,7.81,121.85c1.17,18.31,6.99,32.1,22.45,42.5,5,3.36,11.6,13.09,19.77,8.55,7.02-12.09-19.95-28.64-20.61-43.49l-3.86-87.05-12.56-97.75c-4.88-37.93,18.77-51.43,17.03-36.91l-4.36,36.46,8.05,55.74c5.67,39.26,7.21,78.56,7.05,118.16-.05,12.08,3.38,18.54,8.32,29.07l17.72,37.72c2.34,4.97,8.32,9.27,12.79,10.19,4.93,1.01,11.05-.76,14.51-4.99-5.24-22.37-25.55-34.69-29.2-55.53-5.21-29.77-6.15-59.27-5.1-88.58,7.42,8.87,13.9,14.45,24.57,18.88-3.92,18.63,8.79,33.32,22.17,42.36-4.5,19.85,4.7,40.17,26.64,44.87,30.28,6.49,76.51-1.72,84.16-27.1,3.46-11.46,1.12-21.14-4.79-30.59,11.1-6.99,19.32-17.09,20.72-27.42,1.82-13.52-1.84-25.1-11.04-34.76l14.16-14.43c18.72-22.67,9.96-55.44-15.38-68.8Z"/>
      <path class="st3" d="M1756,560.87c14.98,5.12,24.26,33.01,27.94,50.89,13.99,68.04,9.87,147.97-31.11,205.4-29.66,41.57-71.76,71.13-118.23,90.94-25.38,8.81-49.13,15.06-79.96,12.69,6.91-60.97,33.73-117.52,76.05-160.83,36.4-37.25,80.93-61.3,129.44-78.19-31.32,5.34-59.44,18.62-86.7,33.73-63.98,35.48-107.39,91.99-129.61,163,9.57-135.69,96.74-249.11,212.19-317.64Z"/>
      <path class="st3" d="M1538.05,661.74c30.17-55.05,70.41-101.8,120.47-141.76l18.78,78.73c-41.46,35.6-76.05,76-102.39,123.75-22.91,41.7-37.89,85.85-44.33,133.64l-39.11-3.68c-1.97-67.65,14.6-132.05,46.58-190.68Z"/>
      <path d="M1372.71,804.01l-1.63,14.54c-8.49,2.09-15.98-2.42-15.79-11.11,2.37-3.78,9.85-5.64,17.43-3.42Z"/>
      <path class="st9" d="M1399.72,910.54c-13.59,1.22-25.56-4.09-32.65-11.55-9.14-9.62-11.86-22.55-8.55-35.51,6.5-25.49,26.91-46.11,52.94-50.72,22.29-3.95,42.23,10.85,43.16,33.72,1.29,31.75-22.31,61.13-54.91,64.06Z"/>
      <path class="st5" d="M1577.44,988.05c-6.93-2.63-8.29-11.94-7.53-18.61-5.72.7-13.11,1.7-16.48-.71-5.31-3.8-7.53-10.18-6.77-18.02-26.62,11.17-70.19,16.04-64.73-11.05-11.11,3.66-24.1,6.89-36.63,5.42-9.51-1.12-15.98-10-12.68-18.58l9.28-24.11c11.88-22.9,36.67-36.21,62.42-32.38l19.12,2.84-1.43,37.43c-.47,12.2,9.04,20.57,20.02,24.23,22.56,7.54,45.08,6.4,68.34.84,17.35-4.15,44.44-9.85,52.81-4.03,1.64,1.14.77,6.84-.81,8.19l-17.06,14.48c-21.16,13.87-42.73,25.19-67.88,34.07Z"/>
      <path class="st6" d="M1601.78,991.77c25.31-10.93,49.92-23.33,67.93-44.85,8.24-9.85,20.38-13.82,31.38-5.8,10.18,7.42,11.22,21.23,2.34,32.47-26.32,33.33-90.19,74.26-108.28,43.68-4.28-7.23-2.97-21.35,6.63-25.49Z"/>
      <path class="st8" d="M1598.28,1065.73c-.87-14.61,10.31-24.01,24.45-25.66,33.73-3.93,63.42-19.27,90.73-38.02,11.65-8,26.8-1.58,33.25,8.28,7.49,11.46,3.79,24.83-7.53,34.37-47.09,39.68-138.3,64.85-140.9,21.03Z"/>
      <path class="st0" d="M1727.93,1230.99c-23.86,10.5-61.18,11.33-61.03-6.32.04-4.73,5.68-10.36,11.41-10.15,15.31.55,28.46-.61,42.95-5.81,5.59-2,12.47,1.87,14.41,7.08,2.08,5.6-1.46,12.43-7.74,15.2Z"/>
      <path class="st4" d="M1740.45,1180.87c-35.88,19.03-95.89,23.3-94.8-3.98.37-9.35,8.05-16.23,17.9-15.58,22.49,1.48,44.09-2.63,64.49-11.85,8.59-3.88,17.72,1.22,21.32,8.26,4.41,8.62.42,18.2-8.9,23.15Z"/>
      <path class="st7" d="M1751.74,1116.54c-44.72,33.42-134.14,54.36-137.02,12.02-.97-14.23,10.46-24.36,24.78-24.94,32.8-1.31,62.8-13.06,90.33-29.88,11.43-6.98,25.48.16,31.19,10.86,5.68,10.64,2.02,23.49-9.28,31.94Z"/>
      <path d="M1388.23,834.26c-11.19,6.75-13.33,21.21-5.19,31.52,8.5,10.76,24.26,13.86,36.73,6.54,12.35-7.24,13.91-22.16,5.32-32.3-9.09-10.73-24.7-13.09-36.86-5.76Z"/>
      <path class="st3" d="M1401.24,858.59c-6.2-.1-10.87-6.04-8.52-12.39,1-2.7,7.25-4.9,10.16-4.47,2.68.39,7.73,4.23,8.14,7.21,1.07,7.76-5.93,9.72-9.78,9.66Z"/>
    </g>
  </g>
  <g>
    <path d="M250.64,1358.48c-.06.06-.09.23-.09.52v.43c-.06.17-.09.32-.09.43-.4,2.31-1.67,4.56-3.81,6.75-1.96,1.96-4.15,3.09-6.58,3.37h-.52c-.06.06-.23.09-.52.09h-.52c-.06.06-.23.09-.52.09-.46.12-.81.17-1.04.17h-1.3c-.06,0-.14-.03-.26-.09h-.69c-.06,0-.12-.03-.17-.09h-.17v37.38l.35.17c1.96.23,4.04-.5,6.23-2.21,2.19-1.7,3.92-3.39,5.19-5.06l1.82-2.34c.69-.92,1.21-1.64,1.56-2.16l.78-.17v1.21c0,4.9-2.68,9.49-8.05,13.76-.35.29-.89.72-1.64,1.3-1.67,1.33-3.55,2.28-5.62,2.86-.29.06-1.73.4-4.33,1.04-2.6.29-4.27.43-5.02.43-6.52,0-12.43-1.93-17.74-5.8-5.54-3.98-8.77-9.2-9.69-15.66v-.26c-.06-.06-.09-.17-.09-.35v-.35c-.06-.06-.09-.17-.09-.35v-.26h-.09v-.35c-.06-.06-.09-.14-.09-.26v-1.56c0-.17.03-.36.09-.56.06-.2.11-.33.17-.39v-.52c0-.06.03-.13.09-.22.06-.09.09-.2.09-.35s.06-.45.17-.91c0-.23.06-.58.17-1.04,2.19-8.88,7.12-15.69,14.8-20.42-.12,0-.26-.03-.43-.09h-.52c-.12,0-.26-.03-.43-.09h-.52c-.35,0-.55-.03-.61-.09h-.69c-.23,0-.43-.03-.61-.09h-.52c-6.23,0-10.99,2.51-14.28,7.53l-.69-.35c.17.06.23.09.17.09l-.09-.09v-.17l-.09-.09v-.09c0-4.15,1.64-7.58,4.93-10.3,3.52-2.88,7.21-4.7,11.07-5.45.23-.06,1.04-.17,2.42-.35.17,0,.4-.03.69-.09h.61c.23-.06.63-.09,1.21-.09h1.04c.06.06.2.09.43.09h.69c.17.06.32.09.43.09h.78l22.67,3.72c.11.12.19.19.22.22.03.03.1.04.22.04h.61c0,.06.06.09.17.09h1.38c.17,0,.36-.03.56-.09.2-.06.37-.1.52-.13.14-.03.39-.1.74-.22l.78-.26c.17-.11.42-.27.74-.48.32-.2.53-.36.65-.48.11-.11.23-.24.35-.39.11-.14.26-.36.43-.65.17-.29.3-.5.39-.65.09-.14.24-.39.48-.74h.17l.09-.09v-.09h.17l.09-.09h.17c.06,0,.11-.03.17-.09h.17c.06,0,.11-.03.17-.09h.09v1.73ZM215.59,1367.14c-1.15.69-1.99,1.44-2.51,2.25-1.15,1.67-2.13,3.43-2.94,5.28-.06.12-.32.72-.78,1.82-.35.87-.72,1.9-1.12,3.12-.12.75-.35,1.85-.69,3.29-.06.46-.14,1.15-.26,2.08-.06.46-.09,1.15-.09,2.08,0,1.73.23,3.52.69,5.36.81,2.31,1.53,4.04,2.16,5.19.06.17.1.29.13.35.03.06.1.14.22.26l.26.26c0,.06.06.16.17.3.11.14.55.76,1.3,1.86.4.35.92.89,1.56,1.64.11.06.23.19.35.39.11.2.19.33.22.39.03.06.1.09.22.09.06,0,.14-.06.26-.17l.35-.35c.06-.06.13-.11.22-.17.09-.06.14-.11.17-.17.03-.06.1-.14.22-.26l.35-.35c.06-.11.14-.23.26-.35,0,.46.26-.35.78-2.42l.26-1.04c.17-.46.26-1.21.26-2.25v-27.43h-.09v-.09c-.06,0-.09-.03-.09-.09v-.09h-.09v-.17c-.12,0-.17-.06-.17-.17v-.26l-1.56-.17ZM227.01,1369.3v20.42c0,3-.98,5.74-2.94,8.22-1.96,2.48-4.07,4.5-6.32,6.06-.12.12-.23.17-.35.17-.17.17-.38.32-.61.43-.17.12-.29.2-.35.26,1.85,1.5,3.84,2.6,5.97,3.29,2.13.69,4.33,1.04,6.58,1.04h.78c.17,0,.49-.06.95-.17.06,0,.2-.03.43-.09h.43c.06,0,.2-.03.43-.09h.35v-38.85l-5.36-.69Z"/>
    <path d="M268.72,1357.01h1.99c-1.67,1.5-2.8,2.91-3.37,4.24-.58,1.33-1.01,3.06-1.3,5.19v15.23l11.77-9.86c1.73,1.38,3.06,2.74,3.98,4.07.98,1.5,1.7,3.17,2.16,5.02v26.65c-1.1,5.19-3.81,9.19-8.13,11.98-4.33,2.8-8.97,4.72-13.93,5.75h-.26c-.06-.06-.13-.1-.22-.13-.09-.03-.27-.1-.56-.22h-.09c-.06-.06-.12-.09-.17-.09h-.09c-.06-.06-.12-.09-.17-.09l.52-1.3c8.02-2.65,12.98-6.89,14.88-12.72v-28.73l-3.29-3.03-6.58,5.36v21.8l2.68,3.2-6.84,5.88-6.75-5.88,2.68-3.2v-27.95l-4.5-.17v-4.59h4.85v-7.01c-.69-3.34-2.08-5.85-4.15-7.53l.61-.17c.17.17.4.26.69.26h.35c.06.06.17.09.35.09.52.17,1.25.52,2.21,1.04.95.52,1.63,1.07,2.03,1.64.06,0,.11.06.17.17.06.12.09.2.09.26l.35.35c2.36-3,5.05-4.79,8.05-5.36v-.17Z"/>
    <path d="M303.85,1371.81l11.25,11.59-14.88,13.07v8.57l7.18,3.46,5.36-3.98,1.21,1.64-11.59,9.08h-.35c-.29,0-.69-.07-1.21-.22-.52-.14-.85-.23-1-.26-.14-.03-.82-.48-2.03-1.34-.12-.06-.29-.2-.52-.43-.06-.06-.14-.14-.26-.26-.12-.11-.26-.22-.43-.3s-.48-.26-.91-.52c-.43-.26-.97-.45-1.6-.56l-.78-.26c-.17,0-.39-.03-.65-.09-.26-.06-.53-.12-.82-.17-.29-.06-.56-.14-.82-.26-.26-.11-.82-.23-1.69-.35,1.9-1.9,2.86-4.15,2.86-6.75v-24.14c2.02-.75,4.07-1.82,6.14-3.2,1.73-1.15,3.58-2.54,5.54-4.15v-.17ZM300.21,1379.51v13.58c.35-.06.75-.29,1.21-.69l1.3-1.04c.11-.06.22-.13.3-.22.09-.09.16-.14.22-.17.06-.03.14-.09.26-.17.11-.09.19-.14.22-.17s.16-.13.39-.3c.23-.17.4-.32.52-.43.52-.29,1.07-.68,1.64-1.17.58-.49,1.07-.94,1.47-1.34l-7.53-7.87Z"/>
    <path d="M380.76,1355.72c5.08,3.46,10.44,5.19,16.09,5.19h.78c.17,0,.49-.06.95-.17.06,0,.2-.03.43-.09h.43c.06,0,.2-.03.43-.09h.35l-12.37,13.24h9.34l-4.33,8.91h-14.45v25.01c.11.12.19.19.22.22.03.03.1.04.22.04h.52l1.3.26h1.3c3.29,0,6.55-.76,9.78-2.29,3.23-1.53,6.06-3.42,8.48-5.67-.35,3-1.73,5.65-4.15,7.96-2.19,2.13-4.79,3.92-7.79,5.36-.4.23-.98.49-1.73.78-.4.06-.89.19-1.47.39-.58.2-1.47.39-2.68.56l-1.3.26c-.29,0-.68.03-1.17.09-.49.06-.82.11-1,.17h-.95c-.4,0-.69.03-.87.09h-1.64c-5.42,0-10.43-1.5-15.01-4.5-4.59-3-7.83-6.98-9.73-11.94-1.21-3.17-1.82-6.49-1.82-9.95,0-2.31.55-5.77,1.64-10.38.23-.35.4-.75.52-1.21.11-.29.32-.72.61-1.3,4.15-8.31,9.43-13.5,15.83-15.57l1.64-.17c-8.36,7.21-12.55,14.31-12.55,21.28v.17l.09.09v.26l.09.09v.09c0,5.65,1.61,10.61,4.85,14.88v.17h.09c0,.06.01.09.04.09.03,0,.07.03.13.09v.09h.09v.09l.87-2.16c.23-2.13.52-5.39.87-9.78,0-.35.03-.89.09-1.64v-3.03l-.09-1.38c-.12-1.85-.17-2.83-.17-2.94-.12-.81-.17-1.44-.17-1.9-.12-.81-.17-1.44-.17-1.9v-.52c-.06-.06-.09-.2-.09-.43v-.52c-.06-.06-.09-.2-.09-.43l17.74-15.92ZM376.09,1364.28l-3.37,3.03v19.73l-.69,3.03c-2.65,3.87-5.05,6.86-7.18,9l-.69.69c-.17.17-.26.29-.26.35l-.35.35c3.63,3.81,7.82,6.29,12.55,7.44v-43.61ZM378.43,1365.58v15.31l10.73-11.25-10.73-4.07Z"/>
    <path d="M413.9,1371.81h.69l6.32,5.54c-.4,1.21-.98,2.19-1.73,2.94l-.78.78-.17,22.58c0,.87.19,1.64.56,2.34.37.69.91,1.33,1.6,1.9h.09c0,.06.04.12.13.17.09.06.14.09.17.09s.07.03.13.09v.09h.17c0,.12.06.17.17.17h.17l.35-.43h.17l6.06-5.54v-21.63l-2.51-3.03,6.84-6.06,6.23,5.54.35.87-2.42,2.94v24.49l.43,1.3c.17.17.4.46.69.87,0,.12.06.17.17.17,0,.29.14.43.43.43,0,.06.06.14.17.26l1.82-1.3,1.21,1.13-7.44,7.09h-.43c-.06-.06-.13-.09-.22-.09s-.3-.06-.65-.17c-.06-.06-.23-.14-.52-.26-2.89-1.96-4.33-4.87-4.33-8.74v-.17c0-.06.03-.11.09-.17v-.35c0-.06.03-.11.09-.17v-.09l-11.77,9.86c-.17-.12-.29-.2-.35-.26l-.09-.09h-.17c-1.38-1.09-2.58-2.29-3.59-3.59-1.01-1.3-1.69-2.73-2.03-4.28v-26.13l-1.64-1.73-1.38.86-.95-1.04,7.87-7.18Z"/>
    <path d="M450.67,1371.81h.17c.17.17.35.26.52.26h.17c.06.06.11.12.17.17.06.06.14.09.26.09.35.35.61.56.78.65.17.09.3.19.39.3.09.12.16.2.22.26.06.06.14.13.26.22.11.09.19.16.22.22.03.06.09.14.17.26.09.12.13.2.13.26,0-.17.09,0,.26.52.17.12.35.35.52.69.11.06.2.23.26.52l.17.52c.06,0,.11.06.17.17.06.12.09.23.09.35s.04.26.13.43.14.27.17.3c.03.03.09.19.17.48.09.29.14.46.17.52.03.06.07.14.13.26v.26l8.39-7.53,5.54,6.49.17.69-5.71,5.19-5.02-5.36-3.37,3.03v22.5c1.15,1.5,2.57,2.63,4.24,3.37l3.11-2.68,1.56,1.47-10.04,8.57c-2.94-3.17-6.2-5.51-9.78-7.01,1.04-.81,1.7-1.76,1.99-2.86.69-.98,1.04-2.16,1.04-3.55v-19.03c-.06-.06-.09-.17-.09-.35v-.35c-.06-.06-.1-.19-.13-.39-.03-.2-.3-.76-.82-1.69-.35-.52-.78-.92-1.3-1.21l-1.99,1.04-.69-1.21,7.18-6.84Z"/>
    <path d="M487.53,1371.81c1.56,1.33,3.4,2.52,5.54,3.59,2.13,1.07,4.04,1.83,5.71,2.29l2.86.78v29.85l-13.06,6.92-11.07-5.71-4.5-1.21,1.82-2.68.52-2.86v-23.79c2.19-.4,4.35-1.25,6.49-2.55,2.13-1.3,4.04-2.78,5.71-4.46v-.17ZM483.72,1379.51v24.83l9.52,4.15v-24.92l-9.52-4.07Z"/>
    <path d="M516.17,1360.73l.69,1.04c-.52.52-1.24,1.36-2.16,2.51-.4.52-.69.97-.87,1.34-.17.38-.26.82-.26,1.34-.06.06-.09.17-.09.35v.35c0,.35.03.61.09.78,0-.11.2.43.61,1.64.29.29.46.52.52.69,2.48,2.94,3.98,6.58,4.5,10.9l11.94-9.86c1.27,1.21,3.08,3.09,5.45,5.62.17.17.27.33.3.48.03.14.07.23.13.26.06.03.14.1.26.22v29.33c-.46,1.04-1.12,1.7-1.99,1.99-.58.12-1.01.29-1.3.52-.12,0-.33.06-.65.17-.32.12-.53.19-.65.22-.12.03-.2.07-.26.13-.06.06-.14.09-.26.09h-.17c-.06.06-.12.09-.17.09-.35.12-.58.17-.69.17s-.25.03-.39.09c-.14.06-.27.12-.39.17-.58.12-1.01.26-1.3.43-.29.17-.69.43-1.21.78l-1.3.78c-.64.52-1.38,1.04-2.25,1.56-.17.17-.35.29-.52.35l-.35.35c-4.67-4.27-9.95-6.84-15.83-7.7,1.1-1.1,1.82-2.11,2.16-3.03.69-1.27,1.04-2.51,1.04-3.72v-21.63c-.4-.58-1.01-1.38-1.82-2.42-.29-.58-.66-1.5-1.12-2.77-.12-.29-.23-.72-.35-1.3-.06-.23-.09-.69-.09-1.38v-.69c0-.06.03-.2.09-.43v-.43c.17-1.09.63-2.34,1.38-3.72.4-.75,1.38-1.85,2.94-3.29.11-.12.29-.25.52-.39.23-.14.4-.24.52-.3.11-.06.23-.13.35-.22.11-.09.24-.14.39-.17.14-.03.27-.1.39-.22.35-.23.71-.4,1.08-.52.37-.12.59-.2.65-.26.06-.06.2-.09.43-.09v-.17ZM525.77,1379.34l-6.58,5.19v19.64l9.6,4.33v-24.23c-.06-.06-.09-.14-.09-.26v-.26c-.06-.06-.09-.14-.09-.26-.12-.81-.43-1.59-.95-2.34-.52-.75-1.07-1.27-1.64-1.56h-.17v-.09h-.09v-.17Z"/>
    <path d="M550.87,1372.33l6.32,5.71-2.51,3.29v24.31c0,.92.13,1.66.39,2.21.26.55.76,1,1.51,1.34l1.99-1.64,1.3,1.3-7.7,6.58c-1.38,0-2.54-.46-3.46-1.38-1.33-1.33-2.05-2.77-2.16-4.33-.06-.23-.09-.58-.09-1.04v-27.51l-1.99-3.46,6.4-5.36ZM553.72,1358.4h5.19l-6.92,9.34,1.73-9.34Z"/>
    <path d="M576.91,1357.01h2.51c-1.62,1.44-2.68,2.83-3.2,4.15-.58,1.56-1.01,3.2-1.3,4.93v38.42l4.67,3.55,1.56-1.21,1.3,1.47-8.22,7.27c-1.73-1.73-3.4-3.14-5.02-4.24-1.85-1.27-3.81-2.31-5.88-3.11,2.25-1.44,3.37-3.4,3.37-5.88v-38.07c-.64-2.31-1.88-4.21-3.72-5.71l.52-.17c.17.17.39.26.65.26s.61.09,1.04.26c.43.17.75.3.95.39.2.09.55.26,1.04.52.49.26,1.11.74,1.86,1.43l.26.26c0,.29.14.43.43.43,0,.12.06.17.17.17,1.21-1.38,2.25-2.39,3.11-3.03,1.1-.92,2.39-1.56,3.89-1.9v-.17Z"/>
    <path d="M599.84,1357.01h2.51c-1.62,1.44-2.68,2.83-3.2,4.15-.58,1.56-1.01,3.2-1.3,4.93v38.42l4.67,3.55,1.56-1.21,1.3,1.47-8.22,7.27c-1.73-1.73-3.4-3.14-5.02-4.24-1.85-1.27-3.81-2.31-5.88-3.11,2.25-1.44,3.37-3.4,3.37-5.88v-38.07c-.64-2.31-1.88-4.21-3.72-5.71l.52-.17c.17.17.39.26.65.26s.61.09,1.04.26c.43.17.75.3.95.39.2.09.55.26,1.04.52.49.26,1.11.74,1.86,1.43l.26.26c0,.29.14.43.43.43,0,.12.06.17.17.17,1.21-1.38,2.25-2.39,3.11-3.03,1.1-.92,2.39-1.56,3.89-1.9v-.17Z"/>
    <path d="M622.59,1371.98l11.59,4.5v.09l.17-.17c.11-.17.42-.46.91-.87.49-.4.91-.63,1.25-.69.06,0,.14-.03.26-.09h.26c.06,0,.14-.03.26-.09h.26l.35-.17c-.23.4-.55.95-.95,1.64-.23.35-.51.88-.82,1.6-.32.72-.79,1.83-1.43,3.33l-.17,24.4c.06.23.1.38.13.43.03.06.07.14.13.26v.26c0,.06.03.14.09.26v.17c.11.17.32.46.61.87.06.06.35.29.87.69,0,.12.06.17.17.17h.09c0,.06.03.09.09.09l1.56-1.13,1.3,1.13-7.53,6.58h-.52c-.98,0-1.82-.4-2.51-1.21-.87-1.15-1.41-2.16-1.64-3.03-.17-.4-.36-1.07-.56-1.99-.2-.92-.3-1.47-.3-1.64v-.61c-.06,0-.09-.06-.09-.17v-.43c-.06-.06-.09-.14-.09-.26v-.52l-11.42,9.86c-2.08-1.15-3.76-2.75-5.06-4.8-1.3-2.05-1.95-4.2-1.95-6.45v-.43c0-.06.03-.14.09-.26v-.87c0-.06.03-.14.09-.26v-.17c0-.06.23-.95.69-2.68,1.27-4.67,3.72-8.48,7.35-11.42l-4.24-12.11c.06.17.14.26.26.26h.52c0,.06.06.09.17.09h1.21c.17,0,.32-.01.43-.04.11-.03.23-.07.35-.13h.17c1.21-.17,2.57-.61,4.07-1.3,1.33-.63,2.51-1.47,3.55-2.51v-.17ZM614.55,1377.69l3.37,9.52,8.39,4.85v-10.04l-10.73-4.33h-1.04ZM617.92,1389.55c-1.04,1.38-1.75,2.65-2.12,3.81-.38,1.15-.56,2.42-.56,3.81v1.21c0,.46.06.87.17,1.21.46,3.06,1.82,6.14,4.07,9.26l.95-.52,6.06-5.36v-8.48l-8.57-4.93Z"/>
    <path d="M658.15,1371.81l13.24,6.4h.87l6.32-4.41v9.08h-7.18v22.76c0,.17.06.43.17.78,0,.06.01.14.04.26.03.12.1.23.22.35.23.69.75,1.82,1.56,3.37l4.41,6.49v.35c0,.12.06.23.17.35v.35c0,.06.03.11.09.17v.43c-.06.06-.09.14-.09.26v.35c-.06.06-.09.13-.09.22s-.04.27-.13.56c-.09.29-.16.48-.22.56-.06.09-.12.22-.17.39-.06.17-.14.32-.26.43l-.61.61c-.12.06-.23.14-.35.26l-.26.26-8.57,4.85c-.12,0-.35-.06-.69-.17-.35-.12-.61-.2-.78-.26-.46-.17-.98-.32-1.56-.43-.35-.12-.84-.26-1.47-.43-.29-.06-.81-.14-1.56-.26-2.31-.29-3.92-.43-4.85-.43h-.78c-.06,0-.89.12-2.51.35.06,0-.52.09-1.73.26-.23.06-.52.14-.87.26-.12,0-.61.14-1.47.43-.17,0-.42.06-.74.17-.32.11-.85.23-1.6.35-.12,0-.26.03-.43.09h-.52c-.06,0-.23.03-.52.09h-.52l-.17-1.64,9.17-11.25-8.48-6.06v-30.46c5.08-.75,9.37-2.71,12.89-5.88v-.17ZM663.17,1407.2l-10.21,12.55,1.04-.26c.69-.17,1.38-.26,2.08-.26.35-.12.89-.17,1.64-.17h.78c4.33,0,8.91,1.07,13.76,3.2l.26-.78c-2.13-2.25-3.92-4.44-5.36-6.58-1.67-2.54-3-5.05-3.98-7.53v-.17ZM653.48,1378.82v26.22l5.02,3.46c2.31-1.73,3.86-3.78,4.67-6.14v-19.99l-9.69-3.55Z"/>
    <path d="M696.22,1371.81l11.25,11.59-14.88,13.07v8.57l7.18,3.46,5.36-3.98,1.21,1.64-11.59,9.08h-.35c-.29,0-.69-.07-1.21-.22-.52-.14-.85-.23-1-.26-.14-.03-.82-.48-2.03-1.34-.12-.06-.29-.2-.52-.43-.06-.06-.14-.14-.26-.26-.12-.11-.26-.22-.43-.3s-.48-.26-.91-.52c-.43-.26-.97-.45-1.6-.56l-.78-.26c-.17,0-.39-.03-.65-.09-.26-.06-.53-.12-.82-.17-.29-.06-.56-.14-.82-.26-.26-.11-.82-.23-1.69-.35,1.9-1.9,2.86-4.15,2.86-6.75v-24.14c2.02-.75,4.07-1.82,6.14-3.2,1.73-1.15,3.58-2.54,5.54-4.15v-.17ZM692.59,1379.51v13.58c.35-.06.75-.29,1.21-.69l1.3-1.04c.11-.06.22-.13.3-.22.09-.09.16-.14.22-.17.06-.03.14-.09.26-.17.11-.09.19-.14.22-.17s.16-.13.39-.3c.23-.17.4-.32.52-.43.52-.29,1.07-.68,1.64-1.17.58-.49,1.07-.94,1.47-1.34l-7.53-7.87Z"/>
    <path d="M754.88,1355.2l9.08,2.51c.63.17,2.02.03,4.15-.43.29-.11.72-.26,1.3-.43h.35c.06,0,.12-.03.17-.09h.09c.29-.12.69-.23,1.21-.35-.06,0,.35-.09,1.21-.26.52-.17,1.33-.26,2.42-.26l-.17.35c-3.35,1.62-6.14,3.81-8.39,6.58-2.25,2.77-3.37,6.06-3.37,9.86v23.45c-.58,3.35-2.45,7.15-5.62,11.42-.17.23-.27.38-.3.43-.03.06-.09.13-.17.22-.09.09-.19.2-.3.35-.12.14-.23.3-.35.48-.12.17-.2.35-.26.52.29-.29.52-.46.69-.52l.35-.35c.06,0,.17-.09.35-.26,4.5-3.86,7.38-7.56,8.65-11.08.52-3.46.78-6.98.78-10.56v-6.84c0-.63.03-1.57.09-2.81.06-1.24.09-2.18.09-2.81,0-1.9.17-3.75.52-5.54,1.04-5.31,5.33-9.26,12.89-11.85,2.25-.75,4.27-1.21,6.06-1.38v.52c-3,1.62-5.34,3.29-7.01,5.02-1.9,2.02-3.03,4.53-3.37,7.53v10.04l14.62-11.85c3,2.13,5.42,4.64,7.27,7.53,1.96,3.06,3.06,6.35,3.29,9.86,0,.23.03.55.09.95v1.04c0,.46.01.77.04.91.03.14.07.33.13.56v2.25c0,.35.03.61.09.78v2.6c0,2.08-.38,4.53-1.12,7.35-.64,2.37-1.73,4.5-3.29,6.4l-12.37,10.56c-.58.12-1.12.55-1.64,1.3-.12,0-.2.03-.26.09-.06.06-.09.14-.09.26v.17c-.06,0-.09.03-.09.09v.17c-.06,0-.12.06-.17.17-.06.11-.09.23-.09.35v.61c0,.17.06.36.17.56.12.2.19.32.22.35.03.03.16.16.39.39h.95c.23,0,.58.06,1.04.17.11,0,.26.03.43.09h.52c.17,0,.35.03.52.09h.43c.06,0,.14.06.26.17l.17.17c.06.06.12.13.17.22.06.09.09.14.09.17s.03.07.09.13v.17c0,.06.03.12.09.17v.35c-.06,0-.09.03-.09.09v.17c-.06,0-.1.07-.13.22-.03.14-.3.48-.82.99-.23.23-.69.49-1.38.78-.06.12-.32.23-.78.35-.06,0-.17.03-.35.09h-.35v.17c-1.62-.12-2.78-.56-3.5-1.34-.72-.78-1.14-1.75-1.25-2.9-.06-.06-.09-.17-.09-.35v-.35c0-.46.03-.81.09-1.04l.26-1.04c.17-.46.43-1.15.78-2.08l1.04-1.82,6.75-9.08c.92-1.21,1.67-3,2.25-5.36.29-2.02.43-3.26.43-3.72-.17-.11-.49-.26-.95-.43-.23-.17-.58-.32-1.04-.43-.23-.12-.55-.23-.95-.35l-1.04-.26c-.17-.06-.45-.12-.82-.17-.38-.06-.71-.09-.99-.09s-.52-.03-.69-.09h-1.3c-.17.06-.38.09-.61.09h-.52c-.17.06-.38.09-.61.09-4.44.75-8.34,2.42-11.68,5.02l-5.02,3.89c.4.12,1.3.23,2.68.35l2.77.26c.58.12,1.01.17,1.3.17.58.12,1.04.17,1.38.17.81.12,1.33.17,1.56.17h2.6c.29,0,.46-.03.52-.09h.52c.52-.12,1.27-.26,2.25-.43.52-.17,1.21-.43,2.08-.78.06,0,.14-.06.26-.17l.26-.26c.12-.11.26-.24.43-.39.17-.14.33-.27.48-.39.14-.11.33-.35.56-.69l1.21,1.04-8.22,11.94-10.12-3.37c.23,0-.78-.09-3.03-.26-2.25-.17-3.46-.26-3.63-.26h-2.6c-.17.06-.35.09-.52.09-1.96.06-3.95.51-5.97,1.34-2.02.84-3.4,2.09-4.15,3.76.17.35.37.87.61,1.56.35,1.04.52,2.08.52,3.11v1.56c-.29.23-.69.52-1.21.87-.29.17-.72.32-1.3.43-.98-.12-1.64-.48-1.99-1.08-.35-.61-.52-1.17-.52-1.69v-.26c0-.35.03-.69.09-1.04,0-.12.03-.29.09-.52,0-.06.06-.26.17-.61.12-.35.19-.55.22-.61.03-.06.1-.26.22-.61.06,0,.11-.07.17-.22.06-.14.1-.25.13-.3.03-.06.07-.14.13-.26.06-.12.1-.2.13-.26.03-.06.07-.14.13-.26.06-.12.09-.23.09-.35s.04-.2.13-.26c.09-.06.16-.13.22-.22.06-.09.09-.16.09-.22s.06-.14.17-.26l7.61-9.26c.75-1.27,1.13-2.45,1.13-3.55v-.61c-.06,0-.09-.06-.09-.17v-.43c-.06-.06-.12-.22-.17-.48-.06-.26-.09-.48-.09-.65l-2.34-1.13c-.06.12-.12.26-.17.43-.06.17-.14.32-.26.43-.4.52-1.05,1.08-1.95,1.69-.9.61-1.66.91-2.29.91l-.17-.43c-.06,0-.09-.03-.09-.09v-.43c-.06,0-.09-.03-.09-.09v-.26c0-2.13.81-4.01,2.42-5.62,1.61-1.61,3.49-2.48,5.62-2.6v-1.21c0-1.15-.64-2.34-1.9-3.55-1.1-1.04-2.28-1.76-3.55-2.16-.12-.11-.26-.19-.43-.22-.17-.03-.4-.06-.69-.09-.29-.03-.49-.07-.61-.13h-.52l-.69-.17c-.06.17-.25.29-.56.35-.32.06-.51.09-.56.09h-.26c-.12.06-.2.09-.26.09-.35.12-.55.17-.61.17-.35.12-.56.19-.65.22-.09.03-.29.1-.61.22-.32.12-.65.29-1,.52,0-1.96.92-3.69,2.77-5.19,1.61-1.33,3.49-2.16,5.62-2.51.17,0,.35-.03.52-.09h.43c.29,0,.46-.03.52-.09h.52l.86-.17v.09c-.06,0-.09-.03-.09-.09v-.43c-.06,0-.09-.03-.09-.09v-.17c0-5.42,2.86-10.67,8.57-15.75-2.02.4-2.83.61-2.42.61l-1.3.26h-1.21c-.06,0-.87-.09-2.42-.26-.23-.11-.62-.23-1.17-.35-.55-.11-.97-.2-1.25-.26-.06,0-.12-.03-.17-.09h-.17l-.09-.09h-.17c-.06-.06-.26-.14-.61-.26-.12,0-.32-.06-.61-.17l-1.3-.26c-.06,0-.12-.03-.17-.09h-.26c-.23,0-.58-.06-1.04-.17h-1.04c-.06.06-.14.09-.26.09h-.35c-.06.06-.17.09-.35.09-.35.12-.55.17-.61.17l-2.34,2.94c-.06.17-.12.26-.17.26h-.09c-.06.06-.13.12-.22.17-.09.06-.16.09-.22.09h-.17l-.17-.35c.29-3.06,1.44-5.36,3.46-6.92,2.31-1.79,4.82-2.8,7.53-3.03.06,0,.14-.03.26-.09h1.04l1.64-.17ZM784.21,1374.49l-8.39,7.35.35,1.73c.52.52,1.17.9,1.95,1.13.78.23,1.54.46,2.29.69.35.12.65.2.91.26.26.06.71.09,1.34.09h1.73c.23,0,.4-.01.52-.04.12-.03.23-.07.35-.13h.26c.17,0,.42-.03.74-.09.32-.06.58-.12.78-.17.2-.06.59-.17,1.17-.35.81-.29,1.67-.69,2.6-1.21-.12-2.19-1.7-5.05-4.76-8.57-.12-.06-.38-.16-.78-.3-.4-.14-.69-.22-.87-.22l-.17-.17ZM775.82,1395.26c.11,0,.61-.06,1.47-.17l1.56-.26c.35-.06.98-.14,1.9-.26.4,0,.72-.03.95-.09h1.9c.23.06.61.09,1.12.09.98.12,2.48.38,4.5.78.35.12.72.17,1.13.17l1.04.26-.17-10.21c-.4.17-1.04.39-1.9.65-.87.26-2.16.56-3.89.91-.4.06-1.04.09-1.9.09-.35,0-1.62-.14-3.81-.43-.46-.11-1.13-.26-1.99-.43-.4-.11-1.04-.32-1.9-.61v9.52Z"/>
    <path d="M822.02,1371.81l11.25,11.59-14.88,13.07v8.57l7.18,3.46,5.36-3.98,1.21,1.64-11.59,9.08h-.35c-.29,0-.69-.07-1.21-.22-.52-.14-.85-.23-1-.26-.14-.03-.82-.48-2.03-1.34-.12-.06-.29-.2-.52-.43-.06-.06-.14-.14-.26-.26-.12-.11-.26-.22-.43-.3-.17-.09-.48-.26-.91-.52-.43-.26-.97-.45-1.6-.56l-.78-.26c-.17,0-.39-.03-.65-.09-.26-.06-.53-.12-.82-.17-.29-.06-.56-.14-.82-.26-.26-.11-.82-.23-1.69-.35,1.9-1.9,2.86-4.15,2.86-6.75v-24.14c2.02-.75,4.07-1.82,6.14-3.2,1.73-1.15,3.58-2.54,5.54-4.15v-.17ZM818.39,1379.51v13.58c.35-.06.75-.29,1.21-.69l1.3-1.04c.12-.06.22-.13.3-.22.09-.09.16-.14.22-.17.06-.03.14-.09.26-.17.12-.09.19-.14.22-.17.03-.03.16-.13.39-.3.23-.17.4-.32.52-.43.52-.29,1.07-.68,1.64-1.17.58-.49,1.07-.94,1.47-1.34l-7.53-7.87Z"/>
    <path d="M842.96,1371.81h.17c.17.17.35.26.52.26h.17c.06.06.12.12.17.17.06.06.14.09.26.09.35.35.61.56.78.65.17.09.3.19.39.3.09.12.16.2.22.26.06.06.14.13.26.22.11.09.19.16.22.22.03.06.09.14.17.26.09.12.13.2.13.26,0-.17.09,0,.26.52.17.12.35.35.52.69.11.06.2.23.26.52l.17.52c.06,0,.11.06.17.17.06.12.09.23.09.35s.04.26.13.43c.09.17.14.27.17.3.03.03.09.19.17.48.09.29.14.46.17.52.03.06.07.14.13.26v.26l8.39-7.53,5.54,6.49.17.69-5.71,5.19-5.02-5.36-3.37,3.03v22.5c1.15,1.5,2.57,2.63,4.24,3.37l3.11-2.68,1.56,1.47-10.04,8.57c-2.94-3.17-6.2-5.51-9.78-7.01,1.04-.81,1.7-1.76,1.99-2.86.69-.98,1.04-2.16,1.04-3.55v-19.03c-.06-.06-.09-.17-.09-.35v-.35c-.06-.06-.1-.19-.13-.39-.03-.2-.3-.76-.82-1.69-.35-.52-.78-.92-1.3-1.21l-1.99,1.04-.69-1.21,7.18-6.84Z"/>
    <path d="M879.47,1371.98l11.59,4.5v.09l.17-.17c.11-.17.42-.46.91-.87.49-.4.91-.63,1.25-.69.06,0,.14-.03.26-.09h.26c.06,0,.14-.03.26-.09h.26l.35-.17c-.23.4-.55.95-.95,1.64-.23.35-.51.88-.82,1.6-.32.72-.79,1.83-1.43,3.33l-.17,24.4c.06.23.1.38.13.43.03.06.07.14.13.26v.26c0,.06.03.14.09.26v.17c.11.17.32.46.61.87.06.06.35.29.87.69,0,.12.06.17.17.17h.09c0,.06.03.09.09.09l1.56-1.13,1.3,1.13-7.53,6.58h-.52c-.98,0-1.82-.4-2.51-1.21-.87-1.15-1.41-2.16-1.64-3.03-.17-.4-.36-1.07-.56-1.99-.2-.92-.3-1.47-.3-1.64v-.61c-.06,0-.09-.06-.09-.17v-.43c-.06-.06-.09-.14-.09-.26v-.52l-11.42,9.86c-2.08-1.15-3.76-2.75-5.06-4.8-1.3-2.05-1.95-4.2-1.95-6.45v-.43c0-.06.03-.14.09-.26v-.87c0-.06.03-.14.09-.26v-.17c0-.06.23-.95.69-2.68,1.27-4.67,3.72-8.48,7.35-11.42l-4.24-12.11c.06.17.14.26.26.26h.52c0,.06.06.09.17.09h1.21c.17,0,.32-.01.43-.04.11-.03.23-.07.35-.13h.17c1.21-.17,2.57-.61,4.07-1.3,1.33-.63,2.51-1.47,3.55-2.51v-.17ZM871.43,1377.69l3.37,9.52,8.39,4.85v-10.04l-10.73-4.33h-1.04ZM874.8,1389.55c-1.04,1.38-1.75,2.65-2.12,3.81-.38,1.15-.56,2.42-.56,3.81v1.21c0,.46.06.87.17,1.21.46,3.06,1.82,6.14,4.07,9.26l.95-.52,6.06-5.36v-8.48l-8.57-4.93Z"/>
    <path d="M913.65,1357.01h2.51c-1.62,1.44-2.68,2.83-3.2,4.15-.58,1.56-1.01,3.2-1.3,4.93v38.42l4.67,3.55,1.56-1.21,1.3,1.47-8.22,7.27c-1.73-1.73-3.4-3.14-5.02-4.24-1.85-1.27-3.81-2.31-5.88-3.11,2.25-1.44,3.37-3.4,3.37-5.88v-38.07c-.64-2.31-1.88-4.21-3.72-5.71l.52-.17c.17.17.39.26.65.26s.61.09,1.04.26.75.3.95.39c.2.09.55.26,1.04.52.49.26,1.11.74,1.86,1.43l.26.26c0,.29.14.43.43.43,0,.12.06.17.17.17,1.21-1.38,2.25-2.39,3.11-3.03,1.1-.92,2.39-1.56,3.89-1.9v-.17Z"/>
    <path d="M922.04,1359.09l26.13,17.91c.11-.06.35-.32.69-.78.17-.17.5-.48,1-.91.49-.43,1.11-.82,1.86-1.17l-.87,2.86v31.49c-1.38.58-3.43,1.53-6.14,2.86-1.27.81-3.14,1.99-5.62,3.55-.12,0-.19.03-.22.09-.03.06-.13.16-.3.3-.17.14-.32.24-.43.3l-6.58-4.07-9.34-3.03c1.67-1.44,2.51-3.29,2.51-5.54v-23.79l7.7-3.2-10.56-8.65.17-8.22ZM935.63,1378.04l-2.68,1.64v24.31l9.52,3.89v-24.14l-6.84-5.71Z"/>
  </g>
  <g>
    <path d="M1049.35,1460.22h-3.16v-77.85c0-19.2-10.13-29.54-28.06-29.54-22.79,0-36.5,16.88-36.5,32.07v75.32h-3.16v-109.08h3.16v20.68h.42c5.06-10.34,15.82-21.94,36.29-21.94,18.57,0,27.64,9.92,30.17,23.63h.42c5.06-12.24,17.3-23.63,37.13-23.63,22.37,0,31.02,14.56,31.02,32.28v78.06h-3.16v-77.85c0-19.2-10.13-29.54-28.06-29.54-22.79,0-36.5,16.88-36.5,32.07v75.32Z"/>
    <path d="M1200.82,1445.88v-10.13h-.42c-4.43,15.19-21.52,26.16-42.83,26.16s-35.02-11.39-35.02-28.9c0-22.15,18.78-27.85,41.77-30.8,27.64-3.59,36.5-6.75,36.5-19.41,0-18.99-10.34-30.17-32.7-30.17s-34.81,9.07-36.5,30.17h-3.16c1.06-17.72,11.18-33.13,39.67-33.13,24.05,0,35.87,12.03,35.87,33.13v62.87c0,9.92,2.95,12.45,8.65,12.45,2.95,0,5.06-.84,6.54-1.69h.42v2.95c-1.26.84-4.01,1.69-6.96,1.69-10.34,0-11.81-7.39-11.81-15.19ZM1200.82,1420.98v-28.06c-3.38,4.85-9.71,8.65-35.24,11.82-25.74,3.16-39.87,9.28-39.87,28.27s17.3,25.95,31.86,25.95c24.26,0,43.25-14.56,43.25-37.98Z"/>
    <path d="M1303.78,1351.14h3.16v104.23c0,12.87-4.43,23.84-13.29,31.23-7.39,5.91-17.72,9.28-31.02,9.28-26.58,0-41.77-9.28-44.09-25.95h3.16c2.53,14.77,16.04,23,40.93,23,28.06,0,41.14-16.04,41.14-37.56v-30.17h-.21c-5.7,20.89-21.52,33.97-43.25,33.97-27.01,0-46.84-21.94-46.84-54.86,0-36.71,21.94-54.65,46.21-54.65s39.45,15.83,43.89,35.45h.21v-33.97ZM1303.78,1404.94c0-31.86-17.93-52.32-43.25-52.32-23.42,0-43.89,16.67-43.89,51.9,0,31.65,19.2,51.69,43.89,51.69s43.25-19.83,43.25-51.27Z"/>
    <path d="M1391.32,1445.88v-10.13h-.42c-4.43,15.19-21.52,26.16-42.83,26.16s-35.02-11.39-35.02-28.9c0-22.15,18.78-27.85,41.77-30.8,27.64-3.59,36.5-6.75,36.5-19.41,0-18.99-10.34-30.17-32.7-30.17s-34.81,9.07-36.5,30.17h-3.16c1.06-17.72,11.18-33.13,39.67-33.13,24.05,0,35.87,12.03,35.87,33.13v62.87c0,9.92,2.95,12.45,8.65,12.45,2.95,0,5.06-.84,6.54-1.69h.42v2.95c-1.26.84-4.01,1.69-6.96,1.69-10.34,0-11.81-7.39-11.81-15.19ZM1391.32,1420.98v-28.06c-3.38,4.85-9.71,8.65-35.24,11.82-25.74,3.16-39.87,9.28-39.87,28.27s17.3,25.95,31.86,25.95c24.26,0,43.25-14.56,43.25-37.98Z"/>
    <path d="M1411.57,1457.27h78.7v2.95h-82.5v-2.95l75.32-103.17h-71.95v-2.95h75.95v2.95l-75.53,103.17Z"/>
    <path d="M1499.75,1323.08h-3.16v-11.81h3.16v11.81ZM1499.75,1460.22h-3.16v-109.08h3.16v109.08Z"/>
    <path d="M1515.58,1371.82h.42c5.49-10.34,17.72-21.94,40.09-21.94,24.26,0,34.82,14.56,34.82,32.28v78.06h-3.16v-77.85c0-19.2-12.03-29.54-31.86-29.54-24.69,0-40.3,16.88-40.3,32.07v75.32h-3.16v-109.08h3.16v20.68Z"/>
    <path d="M1622.11,1404.31c.21,32.07,17.3,54.64,46.84,54.64,19.83,0,35.66-10.13,41.14-30.59h3.16c-4.01,17.93-18.99,33.55-44.31,33.55-32.49,0-50-24.9-50-57.81,0-29.96,18.14-54.43,48.95-54.43,11.18,0,20.68,3.16,27.85,9.07,12.03,9.28,18.57,25.53,19.41,45.57h-93.05ZM1667.9,1352.62c-24.05,0-44.73,17.93-45.78,48.74h89.88c-2.53-35.02-23-48.74-44.1-48.74Z"/>
    <path d="M1747.22,1397.56l-22.79,22.36v40.3h-3.16v-150.86h3.16v106.55l65.62-64.77h4.22l-44.94,44.31,52.54,64.77h-3.59l-51.06-62.66Z"/>
    <path d="M1805.86,1323.08h-3.16v-11.81h3.16v11.81ZM1805.86,1460.22h-3.16v-109.08h3.16v109.08Z"/>
  </g>
  <rect class="st2" x="194.14" y="1452.45" width="757.58" height="7.53"/>
</svg>